<?xml version="1.0" standalone="no"?>
<!DOCTYPE svg PUBLIC "-//W3C//DTD SVG 20010904//EN"
 "http://www.w3.org/TR/2001/REC-SVG-20010904/DTD/svg10.dtd">
<svg version="1.0" xmlns="http://www.w3.org/2000/svg"
 width="256.000000pt" height="256.000000pt" viewBox="0 0 256.000000 256.000000"
 preserveAspectRatio="xMidYMid meet">
<metadata>
Created by potrace 1.14, written by Peter Selinger 2001-2017
</metadata>
<g transform="translate(0.000000,256.000000) scale(0.100000,-0.100000)"
fill="#000000" stroke="none">
<path d="M1770 2335 c-176 -37 -327 -183 -369 -359 -21 -86 -12 -235 17 -281
4 -5 7 -12 7 -15 3 -25 58 -105 104 -151 98 -97 202 -140 346 -139 70 0 96 4
156 25 180 64 306 234 315 426 6 143 -41 265 -141 364 -118 116 -276 163 -435
130z"/>
<path d="M489 2226 c-147 -39 -259 -174 -272 -327 -14 -158 64 -294 211 -366
l76 -38 453 -1 453 -1 -21 31 c-30 46 -80 146 -85 170 -19 90 -22 122 -19 201
4 109 21 166 79 268 l44 77 -436 -1 c-313 0 -450 -4 -483 -13z"/>
<path d="M678 1175 c-2 -2 -26 -5 -54 -9 -142 -17 -271 -104 -347 -234 -188
-325 54 -727 433 -717 86 2 163 26 235 73 149 96 230 241 226 404 -1 104 -19
166 -72 254 -34 56 -132 154 -155 154 -6 0 -17 6 -23 14 -18 22 -228 75 -243
61z"/>
<path d="M1166 1041 c8 -14 26 -44 40 -66 63 -104 89 -288 58 -415 -16 -64
-63 -170 -88 -200 -36 -42 -48 -40 416 -40 416 1 447 2 502 21 281 96 340 482
100 652 -103 72 -89 70 -591 72 l-452 2 15 -26z"/>
</g>
</svg>
